<svg id="Layer_1" data-name="Layer 1" xmlns="http://www.w3.org/2000/svg" xmlns:xlink="http://www.w3.org/1999/xlink" viewBox="0 0 402 146"><defs><style>.cls-1{fill:#fff;}.cls-2{mask:url(#mask);}</style><mask id="mask" x="46.38" y="54.18" width="70.85" height="37.61" maskUnits="userSpaceOnUse"><path d="M117.23,90.54c-9.61-.07-19.22,0-28.82,0-1.93,0-4.07.25-5.88-.37,5.78-5.82,11.84-11.52,17.38-17.56l-1.1-.51C93.47,66.6,88,61.21,82.51,55.77c2.11-.62,4.55-.29,6.75-.32,9.33,0,18.64.09,28,0-5,5.14-10.17,10.19-15.24,15.29a6.66,6.66,0,0,0-2.06,2.64C105.82,78.83,111.52,84.86,117.23,90.54Z"/></mask></defs><path class="cls-1" d="M99.92,73.4A6.66,6.66,0,0,1,102,70.76c5.07-5.1,10.22-10.15,15.24-15.29l.28-.31c-.37-.38-.76-.73-1.14-1.09Q108.14,46,100,37.81a1.71,1.71,0,0,0-1.28-.36H64.36c-2,1.74-3.81,3.71-5.69,5.57-3.77,3.7-7.42,7.53-11.28,11.14l-.11.08-.72.58c-.37,11.18,0,22.76-.17,34,.12,1.15-.34,2.63,1.15,3,4.31,4.47,9,9,13.41,13.46a42.35,42.35,0,0,0,3.42,3.28l.66,0c4.1,0,8.2,0,12.3,0q4.24,0,8.47,0c4.31,0,8.63,0,12.94,0a1.63,1.63,0,0,0,1.3-.38c1.32-1.35,2.67-2.68,4-4,4.13-4,8.18-8.18,12.32-12.2q.58-.54,1.14-1.11l-.27-.29C111.52,84.86,105.82,78.83,99.92,73.4ZM68.34,77.18c-1.32-1.34-2.66-2.66-4-4V72.8c1.32-1.33,2.66-2.64,4-4,4.52-4.53,9.08-9,13.53-13.63l.64.58c5.45,5.44,11,10.83,16.3,16.36l1.1.51c-5.54,6-11.6,11.74-17.38,17.56l-.66.6C77.41,86.21,72.86,81.7,68.34,77.18Z"/><path class="cls-1" d="M135.19,68.14a13.05,13.05,0,0,0,0,9.77c1.07,1.72,2.6,1.58,4.4,1.45,1.4-.68,1.27-1.66,1.67-3,2.18.05,4.35,0,6.52,0-.22,1.52-.05,2.92-1,4.22-3.62,6.15-14.63,5.8-17.88-.56-2.56-4.2-2.35-11.19.62-15.15,2.89-4.12,8.8-4.7,13.18-3.06a8.39,8.39,0,0,1,5.11,8.4c-2.19,0-4.39,0-6.57,0a7,7,0,0,0-1.2-3.21C138.49,66.2,136,66.36,135.19,68.14Z"/><path class="cls-1" d="M164.52,61.13c0,2.25-.55,4.36-.71,6.59-2.4,0-4.52-.61-5.95,1.81.08,5,0,10,.06,15-2.38,0-4.78,0-7.16,0q0-11.55,0-23.1c2.27,0,4.55,0,6.83,0a29.85,29.85,0,0,1,0,3.41C159.31,61.9,160.84,60.55,164.52,61.13Z"/><path class="cls-1" d="M189.46,61.45c-3.07,8.6-6.12,17.46-9.1,26.08-.94,2.42-2.84,5.76-5.7,6.11a9.66,9.66,0,0,1-6.1-.28,25,25,0,0,0,.84-4.86c3,.21,4.91-.74,5.17-3.91-2.66-7.69-5.33-15.43-7.93-23.14,2.52,0,5.06-.06,7.57,0,1.4,4.15,2,9.17,3.89,13,1-4.38,2.46-8.67,3.7-13C184.34,61.37,186.91,61.47,189.46,61.45Z"/><path class="cls-1" d="M212.94,72.58c0-4.16-1.63-9.49-5.91-11.06-3.09-1-6.9-.69-8.52,2.54l-.28-2.59c-2.25-.06-4.49,0-6.74,0q0,16,0,32c2.37.08,4.75,0,7.13,0,0-3.63.1-7.29-.06-10.91,2.36,2.74,6.76,3.12,9.74,1.39C212.19,81.43,213,76.9,212.94,72.58Zm-9.38,6.69c-1.76.26-3.52.38-4.82-1-.19-3.26-.06-6.59-.07-9.86.9-1.88,3.05-2,4.85-1.59,2.11,1.4,2.12,4.42,2.39,6.7C205.55,75.37,205.58,78.3,203.56,79.27Z"/><path class="cls-1" d="M228.84,79.48a28.22,28.22,0,0,0,.61,5c-2.78.54-6.33.92-8.9-.5-2-1.17-2.65-3.39-2.87-5.52-.12-4,0-8.11-.08-12.16-1.09,0-2.19,0-3.28,0,0-1.63,0-3.24,0-4.86,1.1,0,2.21,0,3.31,0,0-1.95,0-3.91,0-5.87,2.4,0,4.8,0,7.2,0,0,2,0,3.91,0,5.86,1.3,0,2.61,0,3.91,0a39.57,39.57,0,0,0,0,4.87c-1.31,0-2.61,0-3.91,0,0,3.82,0,7.65,0,11.47C225.2,80.29,227.43,78.9,228.84,79.48Z"/><path class="cls-1" d="M246.17,61.62c-4-1-8.87-.93-12,2.1-3.64,3.7-4.21,9-2.89,13.84a10.25,10.25,0,0,0,8.3,7.31c2.26.09,5.18.28,7.23-.76C255.59,80.46,255.3,64.76,246.17,61.62ZM245.62,76c-.33,2.32-1.9,3.76-4.32,3.38-2.12.09-3.22-2.51-3.29-4.26-.11-2.77-.51-6.26,1.92-8.21,2.19-.77,4.28-.48,5.33,1.8A13.4,13.4,0,0,1,245.62,76Z"/><path class="cls-1" d="M277.26,70c0,4.84,0,9.69,0,14.54-2.44,0-4.87,0-7.31,0,0-5.08,0-10.18,0-15.27,0-3.43-5.53-3.63-6.59-.91.12,5.36-.28,10.86.22,16.18-2.43,0-4.88,0-7.3,0q0-11.54,0-23.08c2.25,0,4.53,0,6.79,0,0,1.07,0,2.15.09,3.22A8.18,8.18,0,0,1,274,62.09C276.63,63.66,277.06,67.24,277.26,70Z"/><path class="cls-1" d="M291,79.22c-1.57-.51-3-2.31-2.72-4,4.38,0,8.77.05,13.15,0-.17-3.15.47-5.87-1-8.82-2.79-7-14.76-7.2-18.08-.59a15.87,15.87,0,0,0-1.11,12.12,10.56,10.56,0,0,0,7.83,6.85c4.16.51,8.36.12,11.87-2.31-.53-1.45-1.15-2.86-1.71-4.28A13.74,13.74,0,0,1,291,79.22Zm-2.23-11.33c.94-1.82,4.18-1.82,5.21-.09a8.61,8.61,0,0,1,.36,3c-2.11,0-4.22,0-6.33,0A10.94,10.94,0,0,1,288.74,67.89Z"/><path class="cls-1" d="M333.86,61.45c-1.73,7.48-3.6,15.71-5.46,23.09q-3,0-6,0c-1.47-3.87-2.17-8.63-4.15-12.18-1,4.13-2.64,8-3.55,12.19-2.09,0-4.17,0-6.26,0-1.74-7.7-3.48-15.44-5.5-23.08,2.25,0,4.5,0,6.73,0,.68,4.63,1.87,9.18,2.44,13.82,1.83-4.35,2.65-9.26,4.09-13.78,1.49-.11,3,0,4.51,0,1.37,4.57,2.74,9.17,3.87,13.8,1.17-4.56,1.65-9.25,2.79-13.8C329.51,61.43,331.68,61.44,333.86,61.45Z"/><path class="cls-1" d="M355.12,80.46c-1.88,3.36-5.95,4.72-9.64,4.47-4.82.27-9.78-2.45-10.24-7.64,2.19-.06,4.38,0,6.57-.07,0,3.56,5.93,4.19,7,1.3,0-2.17-2-2.31-3.54-3a14.9,14.9,0,0,1-7.54-2.94c-2.77-2.36-2.21-6.81.37-9.06,2.86-2.69,7.14-2.74,10.79-2.15,3.47.73,7,3.11,6.58,7.11-2.29,0-4.59,0-6.88,0,0-3-3.89-3.6-5.54-1.64-.53,1.65-.33,1.91,1,2.9,3.19,1.43,6.82,1.05,9.83,3.79C356,75.22,355.87,78.12,355.12,80.46Z"/><path class="cls-1" d="M68.44,54.62c-1,.06-1.93.13-2.9.22-1.83.1-3.67.21-5.51.21-1-4,0-8.06-1.36-12,1.88-1.86,3.69-3.83,5.69-5.57H65c1,1.16,2,2.33,3.06,3.48C68.33,45.64,67,49.94,68.44,54.62Z"/><path class="cls-1" d="M74.53,47.26c-2.11-2.15-4.35-4.18-6.48-6.32-1-1.15-2-2.32-3.06-3.48h9.87A57.3,57.3,0,0,1,74.53,47.26Z"/><path class="cls-1" d="M85.93,51.39c-1,1.07-2,2.15-2.93,3.22l-.67,0-.79-.13c-2.44-2.31-4.8-4.71-7-7.25a57.3,57.3,0,0,0,.33-9.8h10.9A129.45,129.45,0,0,0,85.93,51.39Z"/><path class="cls-1" d="M100,37.81a33.24,33.24,0,0,0-4.07,3.8c-3.34,3.26-6.6,6.6-10,9.78a129.45,129.45,0,0,1-.17-13.93h13A1.71,1.71,0,0,1,100,37.81Z"/><path class="cls-1" d="M116.36,54.07a18,18,0,0,1-4.89.65q-7.66,0-15.34-.12c.08-4.33.13-8.66-.19-13a33.24,33.24,0,0,1,4.07-3.8Q108.14,46,116.36,54.07Z"/><path class="cls-1" d="M68.05,40.94c2.13,2.14,4.37,4.17,6.48,6.32,2.21,2.54,4.57,4.94,7,7.25a76.42,76.42,0,0,1-13.1.11C67,49.94,68.33,45.64,68.05,40.94Z"/><path class="cls-1" d="M95.94,41.61c.32,4.33.27,8.66.19,13-4.38.11-8.76.06-13.13,0,1-1.07,1.94-2.15,2.93-3.22C89.34,48.21,92.6,44.87,95.94,41.61Z"/><path class="cls-1" d="M60,55.05c-4,.05-8,.05-12-.11l-.61-.76C51.25,50.57,54.9,46.74,58.67,43,60,47,59,51,60,55.05Z"/><g class="cls-2"><path class="cls-1" d="M66.4,91.15c-2.14-.12-4.22-.27-6.37-.23-4,.14-8.13-.17-12.05.24l-.44.63c-1.49-.32-1-1.8-1.15-3,.13-11.24-.2-22.82.17-34l.72-.58.11-.08.61.76c4,.16,8,.16,12,.11,1.84,0,3.68-.11,5.51-.21a60.8,60.8,0,0,1-8.63.54,99.63,99.63,0,0,1-10.22-.51c2.57,4,6.73,7,10,10.29,2.48,2.61,5,5.16,7.64,7.64v.38c-1.17,1.15-2.34,2.3-3.46,3.49C56.49,81.23,51.61,85.35,47.32,90L47,91c5-.16,8.94-.29,14-.35A34.42,34.42,0,0,1,66.4,91.15Z"/></g><path class="cls-1" d="M117.5,55.16l-.28.31c-9.32.07-18.63,0-28,0-2.2,0-4.64-.3-6.75.32l-.64-.58.46-.55.67,0c4.37,0,8.75.1,13.13,0q7.66.09,15.34.12a18,18,0,0,0,4.89-.65C116.74,54.43,117.13,54.78,117.5,55.16Z"/><path class="cls-1" d="M68.34,68.82c-1.31,1.34-2.65,2.65-4,4-2.6-2.48-5.16-5-7.64-7.64a77.84,77.84,0,0,0,.18-9.78,60.8,60.8,0,0,0,8.63-.54c1-.09,1.93-.16,2.9-.22A39.18,39.18,0,0,0,68.34,68.82Z"/><path class="cls-1" d="M82.33,54.64l-.46.55c-4.45,4.6-9,9.1-13.53,13.63a39.18,39.18,0,0,1,.1-14.2,76.42,76.42,0,0,0,13.1-.11Z"/><path class="cls-1" d="M46.69,54.87a99.63,99.63,0,0,0,10.22.51,77.84,77.84,0,0,1-.18,9.78C53.42,61.82,49.26,58.82,46.69,54.87Z"/><path class="cls-1" d="M229.45,84.5c-2.78.54-6.33.92-8.9-.5-2-1.17-2.65-3.39-2.87-5.52-.12-4,0-8.11-.08-12.16-1.09,0-2.19,0-3.28,0,0-1.63,0-3.24,0-4.86,1.1,0,2.21,0,3.31,0,0-1.95,0-3.91,0-5.87,2.4,0,4.8,0,7.2,0,0,2,0,3.91,0,5.86,1.3,0,2.61,0,3.91,0a39.57,39.57,0,0,0,0,4.87c-1.31,0-2.61,0-3.91,0,0,3.82,0,7.65,0,11.47.42,2.51,2.65,1.12,4.06,1.7A28.22,28.22,0,0,0,229.45,84.5Z"/><path class="cls-1" d="M147.74,76.41c-.22,1.52-.05,2.92-1,4.22-3.62,6.15-14.63,5.8-17.88-.56-2.56-4.2-2.35-11.19.62-15.15,2.89-4.12,8.8-4.7,13.18-3.06a8.39,8.39,0,0,1,5.11,8.4c-2.19,0-4.39,0-6.57,0a7,7,0,0,0-1.2-3.21c-1.5-.85-4-.69-4.8,1.09a13.05,13.05,0,0,0,0,9.77c1.07,1.72,2.6,1.58,4.4,1.45,1.4-.68,1.27-1.66,1.67-3C143.4,76.43,145.57,76.41,147.74,76.41Z"/><path class="cls-1" d="M164.52,61.13c0,2.25-.55,4.36-.71,6.59-2.4,0-4.52-.61-5.95,1.81.08,5,0,10,.06,15-2.38,0-4.78,0-7.16,0q0-11.55,0-23.1c2.27,0,4.55,0,6.83,0a29.85,29.85,0,0,1,0,3.41C159.31,61.9,160.84,60.55,164.52,61.13Z"/><path class="cls-1" d="M189.46,61.45c-3.07,8.6-6.12,17.46-9.1,26.08-.94,2.42-2.84,5.76-5.7,6.11a9.66,9.66,0,0,1-6.1-.28,25,25,0,0,0,.84-4.86c3,.21,4.91-.74,5.17-3.91-2.66-7.69-5.33-15.43-7.93-23.14,2.52,0,5.06-.06,7.57,0,1.4,4.15,2,9.17,3.89,13,1-4.38,2.46-8.67,3.7-13C184.34,61.37,186.91,61.47,189.46,61.45Z"/><path class="cls-1" d="M212.94,72.58c0-4.16-1.63-9.49-5.91-11.06-3.09-1-6.9-.69-8.52,2.54l-.28-2.59c-2.25-.06-4.49,0-6.74,0q0,16,0,32c2.37.08,4.75,0,7.13,0,0-3.63.1-7.29-.06-10.91,2.36,2.74,6.76,3.12,9.74,1.39C212.19,81.43,213,76.9,212.94,72.58Zm-9.38,6.69c-1.76.26-3.52.38-4.82-1-.19-3.26-.06-6.59-.07-9.86.9-1.88,3.05-2,4.85-1.59,2.11,1.4,2.12,4.42,2.39,6.7C205.55,75.37,205.58,78.3,203.56,79.27Z"/><path class="cls-1" d="M246.17,61.62c-4-1-8.87-.93-12,2.1-3.64,3.7-4.21,9-2.89,13.84a10.25,10.25,0,0,0,8.3,7.31c2.26.09,5.18.28,7.23-.76C255.59,80.46,255.3,64.76,246.17,61.62ZM245.62,76c-.33,2.32-1.9,3.76-4.32,3.38-2.12.09-3.22-2.51-3.29-4.26-.11-2.77-.51-6.26,1.92-8.21,2.19-.77,4.28-.48,5.33,1.8A13.4,13.4,0,0,1,245.62,76Z"/><path class="cls-1" d="M277.27,84.55c-2.44,0-4.87,0-7.31,0,0-5.08,0-10.18,0-15.27,0-3.43-5.53-3.63-6.59-.91.12,5.36-.28,10.86.22,16.18-2.43,0-4.88,0-7.3,0q0-11.54,0-23.08c2.25,0,4.53,0,6.79,0,0,1.07,0,2.15.09,3.22A8.18,8.18,0,0,1,274,62.09c2.64,1.57,3.07,5.15,3.27,7.92C277.3,74.85,277.28,79.7,277.27,84.55Z"/><path class="cls-1" d="M291,79.22c-1.57-.51-3-2.31-2.72-4,4.38,0,8.77.05,13.15,0-.17-3.15.47-5.87-1-8.82-2.79-7-14.76-7.2-18.08-.59a15.87,15.87,0,0,0-1.11,12.12,10.56,10.56,0,0,0,7.83,6.85c4.16.51,8.36.12,11.87-2.31-.53-1.45-1.15-2.86-1.71-4.28A13.74,13.74,0,0,1,291,79.22Zm-2.23-11.33c.94-1.82,4.18-1.82,5.21-.09a8.61,8.61,0,0,1,.36,3c-2.11,0-4.22,0-6.33,0A10.94,10.94,0,0,1,288.74,67.89Z"/><path class="cls-1" d="M333.86,61.45c-1.73,7.48-3.6,15.71-5.46,23.09q-3,0-6,0c-1.47-3.87-2.17-8.63-4.15-12.18-1,4.13-2.64,8-3.55,12.19-2.09,0-4.17,0-6.26,0-1.74-7.7-3.48-15.44-5.5-23.08,2.25,0,4.5,0,6.73,0,.68,4.63,1.87,9.18,2.44,13.82,1.83-4.35,2.65-9.26,4.09-13.78,1.49-.11,3,0,4.51,0,1.37,4.57,2.74,9.17,3.87,13.8,1.17-4.56,1.65-9.25,2.79-13.8C329.51,61.43,331.68,61.44,333.86,61.45Z"/><path class="cls-1" d="M355.12,80.46c-1.88,3.36-5.95,4.72-9.64,4.47-4.82.27-9.78-2.45-10.24-7.64,2.19-.06,4.38,0,6.57-.07,0,3.56,5.93,4.19,7,1.3,0-2.17-2-2.31-3.54-3a14.9,14.9,0,0,1-7.54-2.94c-2.77-2.36-2.21-6.81.37-9.06,2.86-2.69,7.14-2.74,10.79-2.15,3.47.73,7,3.11,6.58,7.11-2.29,0-4.59,0-6.88,0,0-3-3.89-3.6-5.54-1.64-.53,1.65-.33,1.91,1,2.9,3.19,1.43,6.82,1.05,9.83,3.79C356,75.22,355.87,78.12,355.12,80.46Z"/><path class="cls-1" d="M68.45,91.36c-.69-.06-1.37-.13-2-.21A34.42,34.42,0,0,0,61,90.6c0-4.66.11-9.29-.14-13.93,1.12-1.19,2.29-2.34,3.46-3.49,1.32,1.34,2.66,2.66,4,4A54.29,54.29,0,0,0,68.45,91.36Z"/><path class="cls-1" d="M60.9,76.67c.25,4.64.16,9.27.14,13.93-5.11.06-9,.19-14,.35l.33-.94C51.61,85.35,56.49,81.23,60.9,76.67Z"/><path class="cls-1" d="M82.34,91.35l-.79.13a83.05,83.05,0,0,0-13.1-.12,54.29,54.29,0,0,1-.11-14.18c4.52,4.52,9.07,9,13.53,13.62Z"/><path class="cls-1" d="M117.5,90.83q-.56.57-1.14,1.11c-4.22-1.21-9.08-.49-13.45-.54-6.62-.07-13.24,0-19.87,0l-.7,0-.47-.55.66-.6c1.81.62,4,.35,5.88.37,9.6,0,19.21-.1,28.82,0Z"/><path class="cls-1" d="M61,105.25c-4.39-4.46-9.1-9-13.41-13.46l.44-.63c3.92-.41,8.08-.1,12.05-.24C59.08,95.8,58.86,100.62,61,105.25Z"/><path class="cls-1" d="M68.05,105.05c-1,1.15-2,2.33-3,3.5l-.66,0A42.35,42.35,0,0,1,61,105.25c-2.09-4.63-1.87-9.45-.92-14.33,2.15,0,4.23.11,6.37.23.68.08,1.36.15,2,.21C67.05,96,68.28,100.35,68.05,105.05Z"/><path class="cls-1" d="M68.45,91.36a83.05,83.05,0,0,1,13.1.12C80,93,78.47,94.56,77,96.16c-3.07,2.88-5.88,6-9,8.89C68.28,100.35,67.05,96,68.45,91.36Z"/><path class="cls-1" d="M85.8,108.55q-4.23,0-8.47,0A93.19,93.19,0,0,0,77,96.16c1.47-1.6,3-3.18,4.55-4.68l.79-.13.7,0C84,92.46,85,93.54,86,94.61,85.74,99.26,85.72,103.89,85.8,108.55Z"/><path class="cls-1" d="M104,104.14c-1.33,1.35-2.68,2.68-4,4C95,104.06,90.81,99,86,94.61,85,93.54,84,92.46,83,91.37c6.63,0,13.25,0,19.87,0C103.15,95.44,101.93,100.59,104,104.14Z"/><path class="cls-1" d="M116.36,91.94c-4.14,4-8.19,8.15-12.32,12.2-2.11-3.55-.89-8.7-1.13-12.74C107.28,91.45,112.14,90.73,116.36,91.94Z"/><path class="cls-1" d="M100,108.17a1.63,1.63,0,0,1-1.3.38c-4.31,0-8.63,0-12.94,0-.08-4.66-.06-9.29.16-13.94C90.81,99,95,104.06,100,108.17Z"/><path class="cls-1" d="M77.33,108.55c-4.1,0-8.2,0-12.3,0,1-1.17,2-2.35,3-3.5,3.07-2.88,5.88-6,9-8.89A93.19,93.19,0,0,1,77.33,108.55Z"/></svg>